ply
format ascii 1.0
comment VCGLIB generated
element vertex 100
property float x
property float y
property float z
property float nx
property float ny
property float nz
property uchar red
property uchar green
property uchar blue
property uchar alpha
property float texture_u
property float texture_v
element face 162
property list uchar int vertex_indices
end_header
19.44444 1.092785e-06 25 0 1 -4.371138e-08 255 255 255 255 19.44444 1.092785e-06
25 1.092785e-06 25 0 1 -4.371138e-08 255 255 255 255 25 1.092785e-06
19.44444 8.499438e-07 19.44445 0 1 -4.371139e-08 255 255 255 255 19.44444 8.499438e-07
25 8.499438e-07 19.44445 0 1 -4.371138e-08 255 255 255 255 25 8.499438e-07
13.88889 8.499438e-07 19.44445 0 1 -4.371138e-08 255 255 255 255 13.88889 8.499438e-07
13.88889 1.092785e-06 25 0 1 -4.371138e-08 255 255 255 255 13.88889 1.092785e-06
8.333334 8.499438e-07 19.44445 0 1 -4.371139e-08 255 255 255 255 8.333334 8.499438e-07
8.333334 1.092785e-06 25 0 1 -4.371138e-08 255 255 255 255 8.333334 1.092785e-06
2.777779 8.499438e-07 19.44445 0 1 -4.371138e-08 255 255 255 255 2.777779 8.499438e-07
2.777779 1.092785e-06 25 0 1 -4.371138e-08 255 255 255 255 2.777779 1.092785e-06
-2.777777 8.499438e-07 19.44445 0 1 -4.371138e-08 255 255 255 255 -2.777777 8.499438e-07
-2.777777 1.092785e-06 25 0 1 -4.371138e-08 255 255 255 255 -2.777777 1.092785e-06
-8.333332 8.499438e-07 19.44445 0 0.9999999 -4.371138e-08 255 255 255 255 -8.333332 8.499438e-07
-8.333332 1.092785e-06 25 0 1 -4.371138e-08 255 255 255 255 -8.333332 1.092785e-06
-13.88889 8.499438e-07 19.44445 0 1 -4.371138e-08 255 255 255 255 -13.88889 8.499438e-07
-13.88889 1.092785e-06 25 0 1 -4.371138e-08 255 255 255 255 -13.88889 1.092785e-06
-19.44444 8.499438e-07 19.44445 0 1 -4.371139e-08 255 255 255 255 -19.44444 8.499438e-07
-19.44444 1.092785e-06 25 0 1 -4.371138e-08 255 255 255 255 -19.44444 1.092785e-06
-25 8.499438e-07 19.44445 0 1 -4.371138e-08 255 255 255 255 -25 8.499438e-07
-25 1.092785e-06 25 0 1 -4.371138e-08 255 255 255 255 -25 1.092785e-06
19.44444 6.071028e-07 13.88889 0 1 -4.371139e-08 255 255 255 255 19.44444 6.071028e-07
25 6.071028e-07 13.88889 0 1 -4.371138e-08 255 255 255 255 25 6.071028e-07
13.88889 6.071028e-07 13.88889 0 1 -4.371139e-08 255 255 255 255 13.88889 6.071028e-07
8.333334 6.071028e-07 13.88889 0 1 -4.371139e-08 255 255 255 255 8.333334 6.071028e-07
2.777779 6.071028e-07 13.88889 0 1 -4.371139e-08 255 255 255 255 2.777779 6.071028e-07
-2.777777 6.071028e-07 13.88889 0 1 -4.371139e-08 255 255 255 255 -2.777777 6.071028e-07
-8.333332 6.071028e-07 13.88889 0 1 -4.371138e-08 255 255 255 255 -8.333332 6.071028e-07
-13.88889 6.071028e-07 13.88889 0 0.9999999 -4.371138e-08 255 255 255 255 -13.88889 6.071028e-07
-19.44444 6.071028e-07 13.88889 0 1 -4.371138e-08 255 255 255 255 -19.44444 6.071028e-07
-25 6.071028e-07 13.88889 0 1 -4.371139e-08 255 255 255 255 -25 6.071028e-07
19.44444 3.642616e-07 8.333334 0 1 -4.371139e-08 255 255 255 255 19.44444 3.642616e-07
25 3.642616e-07 8.333334 0 1 -4.371139e-08 255 255 255 255 25 3.642616e-07
13.88889 3.642616e-07 8.333334 0 1 -4.371139e-08 255 255 255 255 13.88889 3.642616e-07
8.333334 3.642616e-07 8.333334 0 1 -4.371139e-08 255 255 255 255 8.333334 3.642616e-07
2.777779 3.642616e-07 8.333334 0 1 -4.371139e-08 255 255 255 255 2.777779 3.642616e-07
-2.777777 3.642616e-07 8.333334 0 1 -4.371139e-08 255 255 255 255 -2.777777 3.642616e-07
-8.333332 3.642616e-07 8.333334 0 1 -4.371139e-08 255 255 255 255 -8.333332 3.642616e-07
-13.88889 3.642616e-07 8.333334 0 1 -4.371139e-08 255 255 255 255 -13.88889 3.642616e-07
-19.44444 3.642616e-07 8.333334 0 1 -4.371139e-08 255 255 255 255 -19.44444 3.642616e-07
-25 3.642616e-07 8.333334 0 1 -4.371139e-08 255 255 255 255 -25 3.642616e-07
19.44444 1.214208e-07 2.777784 0 1 -4.37114e-08 255 255 255 255 19.44444 1.214208e-07
25 1.214208e-07 2.777784 0 1 -4.371139e-08 255 255 255 255 25 1.214208e-07
13.88889 1.214208e-07 2.777784 0 1 -4.371139e-08 255 255 255 255 13.88889 1.214208e-07
8.333334 1.214208e-07 2.777784 0 0.9999999 -4.371138e-08 255 255 255 255 8.333334 1.214208e-07
2.777779 1.214208e-07 2.777784 0 1 -4.371139e-08 255 255 255 255 2.777779 1.214208e-07
-2.777777 1.214208e-07 2.777784 0 1 -4.371138e-08 255 255 255 255 -2.777777 1.214208e-07
-8.333332 1.214208e-07 2.777784 0 1 -4.371138e-08 255 255 255 255 -8.333332 1.214208e-07
-13.88889 1.214208e-07 2.777784 0 1 -4.371139e-08 255 255 255 255 -13.88889 1.214208e-07
-19.44444 1.214208e-07 2.777784 0 1 -4.371139e-08 255 255 255 255 -19.44444 1.214208e-07
-25 1.214208e-07 2.777784 0 1 -4.371139e-08 255 255 255 255 -25 1.214208e-07
19.44444 -1.214205e-07 -2.777777 0 1 -4.371139e-08 255 255 255 255 19.44444 -1.214205e-07
25 -1.214205e-07 -2.777777 0 1 -4.371139e-08 255 255 255 255 25 -1.214205e-07
13.88889 -1.214205e-07 -2.777777 0 1 -4.371139e-08 255 255 255 255 13.88889 -1.214205e-07
8.333334 -1.214205e-07 -2.777777 0 1 -4.371139e-08 255 255 255 255 8.333334 -1.214205e-07
2.777779 -1.214205e-07 -2.777777 0 0.9999999 -4.371138e-08 255 255 255 255 2.777779 -1.214205e-07
-2.777777 -1.214205e-07 -2.777777 0 1 -4.371138e-08 255 255 255 255 -2.777777 -1.214205e-07
-8.333332 -1.214205e-07 -2.777777 0 1 -4.371139e-08 255 255 255 255 -8.333332 -1.214205e-07
-13.88889 -1.214205e-07 -2.777777 0 1 -4.371139e-08 255 255 255 255 -13.88889 -1.214205e-07
-19.44444 -1.214205e-07 -2.777777 0 1 -4.371139e-08 255 255 255 255 -19.44444 -1.214205e-07
-25 -1.214205e-07 -2.777777 0 1 -4.371139e-08 255 255 255 255 -25 -1.214205e-07
19.44444 -3.642612e-07 -8.333324 0 1 -4.37114e-08 255 255 255 255 19.44444 -3.642612e-07
25 -3.642612e-07 -8.333324 0 1 -4.371139e-08 255 255 255 255 25 -3.642612e-07
13.88889 -3.642612e-07 -8.333324 0 1 -4.371139e-08 255 255 255 255 13.88889 -3.642612e-07
8.333334 -3.642612e-07 -8.333324 0 1 -4.371139e-08 255 255 255 255 8.333334 -3.642612e-07
2.777779 -3.642612e-07 -8.333324 0 1 -4.371139e-08 255 255 255 255 2.777779 -3.642612e-07
-2.777777 -3.642612e-07 -8.333324 0 1 -4.371139e-08 255 255 255 255 -2.777777 -3.642612e-07
-8.333332 -3.642612e-07 -8.333324 0 1 -4.371139e-08 255 255 255 255 -8.333332 -3.642612e-07
-13.88889 -3.642612e-07 -8.333324 0 1 -4.37114e-08 255 255 255 255 -13.88889 -3.642612e-07
-19.44444 -3.642612e-07 -8.333324 0 1 -4.37114e-08 255 255 255 255 -19.44444 -3.642612e-07
-25 -3.642612e-07 -8.333324 0 1 -4.371139e-08 255 255 255 255 -25 -3.642612e-07
19.44444 -6.071025e-07 -13.88889 0 1 -4.371138e-08 255 255 255 255 19.44444 -6.071025e-07
25 -6.071025e-07 -13.88889 0 1 -4.371138e-08 255 255 255 255 25 -6.071025e-07
13.88889 -6.071025e-07 -13.88889 0 1 -4.371139e-08 255 255 255 255 13.88889 -6.071025e-07
8.333334 -6.071025e-07 -13.88889 0 1 -4.371139e-08 255 255 255 255 8.333334 -6.071025e-07
2.777779 -6.071025e-07 -13.88889 0 0.9999999 -4.371138e-08 255 255 255 255 2.777779 -6.071025e-07
-2.777777 -6.071025e-07 -13.88889 0 1 -4.371139e-08 255 255 255 255 -2.777777 -6.071025e-07
-8.333332 -6.071025e-07 -13.88889 0 1 -4.371139e-08 255 255 255 255 -8.333332 -6.071025e-07
-13.88889 -6.071025e-07 -13.88889 0 1 -4.371139e-08 255 255 255 255 -13.88889 -6.071025e-07
-19.44444 -6.071025e-07 -13.88889 0 1 -4.371139e-08 255 255 255 255 -19.44444 -6.071025e-07
-25 -6.071025e-07 -13.88889 0 1 -4.371139e-08 255 255 255 255 -25 -6.071025e-07
19.44444 -8.499433e-07 -19.44444 0 1 -4.371139e-08 255 255 255 255 19.44444 -8.499433e-07
25 -8.499433e-07 -19.44444 0 1 -4.371138e-08 255 255 255 255 25 -8.499433e-07
13.88889 -8.499433e-07 -19.44444 0 1 -4.371138e-08 255 255 255 255 13.88889 -8.499433e-07
8.333334 -8.499433e-07 -19.44444 0 0.9999999 -4.371137e-08 255 255 255 255 8.333334 -8.499433e-07
2.777779 -8.499433e-07 -19.44444 0 1 -4.371138e-08 255 255 255 255 2.777779 -8.499433e-07
-2.777777 -8.499433e-07 -19.44444 0 1 -4.371138e-08 255 255 255 255 -2.777777 -8.499433e-07
-8.333332 -8.499433e-07 -19.44444 0 1 -4.371137e-08 255 255 255 255 -8.333332 -8.499433e-07
-13.88889 -8.499433e-07 -19.44444 0 1 -4.371138e-08 255 255 255 255 -13.88889 -8.499433e-07
-19.44444 -8.499433e-07 -19.44444 0 1 -4.371138e-08 255 255 255 255 -19.44444 -8.499433e-07
-25 -8.499433e-07 -19.44444 0 1 -4.371138e-08 255 255 255 255 -25 -8.499433e-07
19.44444 -1.092784e-06 -25 0 1 -4.371137e-08 255 255 255 255 19.44444 -1.092784e-06
25 -1.092784e-06 -25 0 1 -4.371138e-08 255 255 255 255 25 -1.092784e-06
13.88889 -1.092784e-06 -25 0 1 -4.371138e-08 255 255 255 255 13.88889 -1.092784e-06
8.333334 -1.092784e-06 -25 0 1 -4.371138e-08 255 255 255 255 8.333334 -1.092784e-06
2.777779 -1.092784e-06 -25 0 1 -4.371137e-08 255 255 255 255 2.777779 -1.092784e-06
-2.777777 -1.092784e-06 -25 0 1 -4.371138e-08 255 255 255 255 -2.777777 -1.092784e-06
-8.333332 -1.092784e-06 -25 0 1 -4.371138e-08 255 255 255 255 -8.333332 -1.092784e-06
-13.88889 -1.092784e-06 -25 0 1 -4.371137e-08 255 255 255 255 -13.88889 -1.092784e-06
-19.44444 -1.092784e-06 -25 0 1 -4.371137e-08 255 255 255 255 -19.44444 -1.092784e-06
-25 -1.092784e-06 -25 0 1 -4.371137e-08 255 255 255 255 -25 -1.092784e-06
3 0 1 2 
3 1 3 2 
3 4 5 0 
3 0 2 4 
3 6 7 5 
3 5 4 6 
3 8 9 7 
3 7 6 8 
3 10 11 9 
3 9 8 10 
3 12 13 11 
3 11 10 12 
3 14 15 13 
3 13 12 14 
3 16 17 15 
3 15 14 16 
3 18 19 17 
3 17 16 18 
3 20 2 3 
3 3 21 20 
3 22 4 2 
3 2 20 22 
3 23 6 4 
3 4 22 23 
3 24 8 6 
3 6 23 24 
3 25 10 8 
3 8 24 25 
3 26 12 10 
3 10 25 26 
3 27 14 12 
3 12 26 27 
3 28 16 14 
3 14 27 28 
3 29 18 16 
3 16 28 29 
3 30 20 21 
3 21 31 30 
3 32 22 20 
3 20 30 32 
3 33 23 22 
3 22 32 33 
3 34 24 23 
3 23 33 34 
3 35 25 24 
3 24 34 35 
3 36 26 25 
3 25 35 36 
3 37 27 26 
3 26 36 37 
3 38 28 27 
3 27 37 38 
3 39 29 28 
3 28 38 39 
3 40 30 31 
3 31 41 40 
3 42 32 30 
3 30 40 42 
3 43 33 32 
3 32 42 43 
3 44 34 33 
3 33 43 44 
3 45 35 34 
3 34 44 45 
3 46 36 35 
3 35 45 46 
3 47 37 36 
3 36 46 47 
3 48 38 37 
3 37 47 48 
3 49 39 38 
3 38 48 49 
3 50 40 41 
3 41 51 50 
3 52 42 40 
3 40 50 52 
3 53 43 42 
3 42 52 53 
3 54 44 43 
3 43 53 54 
3 55 45 44 
3 44 54 55 
3 56 46 45 
3 45 55 56 
3 57 47 46 
3 46 56 57 
3 58 48 47 
3 47 57 58 
3 59 49 48 
3 48 58 59 
3 60 50 51 
3 51 61 60 
3 62 52 50 
3 50 60 62 
3 63 53 52 
3 52 62 63 
3 64 54 53 
3 53 63 64 
3 65 55 54 
3 54 64 65 
3 66 56 55 
3 55 65 66 
3 67 57 56 
3 56 66 67 
3 68 58 57 
3 57 67 68 
3 69 59 58 
3 58 68 69 
3 70 60 61 
3 61 71 70 
3 72 62 60 
3 60 70 72 
3 73 63 62 
3 62 72 73 
3 74 64 63 
3 63 73 74 
3 75 65 64 
3 64 74 75 
3 76 66 65 
3 65 75 76 
3 77 67 66 
3 66 76 77 
3 78 68 67 
3 67 77 78 
3 79 69 68 
3 68 78 79 
3 80 70 71 
3 71 81 80 
3 82 72 70 
3 70 80 82 
3 83 73 72 
3 72 82 83 
3 84 74 73 
3 73 83 84 
3 85 75 74 
3 74 84 85 
3 86 76 75 
3 75 85 86 
3 87 77 76 
3 76 86 87 
3 88 78 77 
3 77 87 88 
3 89 79 78 
3 78 88 89 
3 90 80 81 
3 81 91 90 
3 92 82 80 
3 80 90 92 
3 93 83 82 
3 82 92 93 
3 94 84 83 
3 83 93 94 
3 95 85 84 
3 84 94 95 
3 96 86 85 
3 85 95 96 
3 97 87 86 
3 86 96 97 
3 98 88 87 
3 87 97 98 
3 99 89 88 
3 88 98 99 
